<?xml version="1.0" encoding="UTF-8" standalone="no"?>
<!-- Created with Inkscape (http://www.inkscape.org/) -->

<svg
   version="1.1"
   id="svg1"
   viewBox="0 0 761 465"
   sodipodi:docname="cloud9.svg"
   inkscape:version="1.4.2 (f4327f4, 2025-05-13)"
   xmlns:inkscape="http://www.inkscape.org/namespaces/inkscape"
   xmlns:sodipodi="http://sodipodi.sourceforge.net/DTD/sodipodi-0.dtd"
   xmlns="http://www.w3.org/2000/svg"
   xmlns:svg="http://www.w3.org/2000/svg">
  <defs
     id="defs1" />
  <sodipodi:namedview
     id="namedview1"
     borderopacity="0.25"
     inkscape:showpageshadow="2"
     inkscape:pageopacity="0.0"
     inkscape:pagecheckerboard="0"
     inkscape:zoom="1.7354839"
     inkscape:cx="380.5855"
     inkscape:cy="232.7881"
     inkscape:window-width="1918"
     inkscape:window-height="1000"
     inkscape:window-x="953"
     inkscape:window-y="0"
     inkscape:window-maximized="0"
     inkscape:current-layer="g1" />
  <g
     inkscape:groupmode="layer"
     inkscape:label="Image"
     id="g1"
     style="display:inline;opacity:1"
     transform="matrix(1.0541632,0,0,1.0530119,-39.712074,-1.7418528)">
    <path
       style="fill:currentColor"
       d="M 137.64281,412.53543 C 107.5374,409.35971 82.977365,398.9505 66.011355,382.17608 c -14.0472,-13.88857 -20.88072,-27.5766 -23.46398,-47 -5.17041,-38.87608 13.67384,-77.35688 46.02743,-93.99008 6.25552,-3.21601 19.388495,-7.17956 28.039335,-8.46232 4.675,-0.69321 10.3,-1.56353 12.5,-1.93404 l 4,-0.67365 0.73211,-7.96996 c 3.87702,-42.20637 14.55473,-67.41019 39.75851,-93.84657 34.81002,-36.512411 85.71869,-55.715038 136.87776,-51.629961 49.86595,3.98182 89.85109,25.284451 121.43264,64.694901 2.78183,3.47142 5.64115,6.31168 6.35406,6.31168 0.71291,0 18.74121,-19.9125 40.06289,-44.25 48.90597,-55.823411 47.70874,-54.550661 49.98851,-53.141011 0.98644,0.60994 1.79352,1.819 1.79352,2.686798 0,0.867799 -19.35,23.662562 -43,50.655033 -23.65,26.99246 -43.39937,49.95546 -43.8875,51.02887 -1.12295,2.46943 1.64697,7.02031 4.27294,7.02031 1.16451,0 12.19113,-11.83218 30.05437,-32.25 15.51827,-17.7375 29.04762,-32.845761 30.06524,-33.573921 1.40279,-1.00377 2.35134,-1.05571 3.92258,-0.21481 1.1398,0.61 2.07237,1.53903 2.07237,2.06451 0,0.52547 -13.95,16.902891 -31,36.394251 -17.58948,20.10809 -31,36.26914 -31,37.35817 0,1.82803 10.7375,21.3593 12.9696,23.5914 0.58444,0.58444 5.89287,2.25265 11.79651,3.70714 5.90364,1.45448 14.29999,4.07509 18.65856,5.82357 4.35857,1.74849 8.48171,3.0487 9.16254,2.88938 1.88978,-0.44225 58.41369,-69.78756 58.40649,-71.65492 -0.003,-0.90211 -6.90221,-7.17752 -15.39299,-14.0022 -8.46268,-6.80209 -15.88484,-13.46076 -16.4937,-14.79705 -1.46966,-3.22555 -1.41292,-10.629611 0.093,-12.135521 2.90039,-2.90039 6.33104,-1.24117 19.22903,9.300001 17.50602,14.30718 19.72137,14.23744 27.43803,-0.86383 2.90679,-5.688481 3.27515,-7.202151 2.6947,-11.072881 -0.70468,-4.69911 -3.46106,-8.16266 -37.852,-47.56329 -14.6946,-16.83514 -16.52789,-20.71473 -13.36467,-28.28212 2.17374,-5.20026 3.97616,-6.20251 8.1562,-4.53529 1.93957,0.77361 15.28729,10.8365 29.66158,22.36199 34.22403,27.441243 35.5989,28.45542 38.57558,28.45542 1.79075,0 4.18936,-1.72668 8.14959,-5.866633 6.45269,-6.745527 12.58037,-11.678257 19.36195,-15.586187 2.6125,-1.50547 4.75,-3.32901 4.75,-4.05231 0,-0.72329 -3.375,-4.33569 -7.5,-8.02754 -4.125,-3.69186 -7.5,-7.33231 -7.5,-8.0899 0,-3.38034 6.51261,-0.52935 19.5,8.53644 12.13464,8.47052 30.50004,25.310808 30.50004,27.967252 0,2.500563 -2.5342,1.839021 -10.5912,-2.764859 -4.768,-2.724483 -9.17306,-4.751583 -9.78898,-4.504643 -0.61592,0.24693 -2.16348,3.742345 -3.43902,7.767593 -2.23968,7.067781 -5.46286,13.08118 -11.60468,21.650517 -2.43589,3.39866 -2.76708,4.52522 -1.98451,6.75044 0.6165,1.753 11.93185,11.66991 32.92379,28.854851 21.1476,17.3123 32.0954,26.91178 32.3117,28.33224 0.4412,2.89778 -2.1616,6.63723 -6.0023,8.6233 -6.1059,3.15752 -9.4923,1.85473 -42.47557,-16.3409 -37.20995,-20.52734 -36.67963,-20.25616 -39.54961,-20.22344 -4.08724,0.0466 -9.43159,3.34943 -14.1701,8.75716 -3.75018,4.27981 -4.62956,5.99828 -4.62956,9.04705 0,4.37767 1.76481,6.27589 17.25,18.55398 8.33788,6.61104 9.75,8.15315 9.75,10.64747 0,3.5074 -3.92358,5.96812 -9.51608,5.96812 -4.91758,0 -5.83727,-0.58704 -22.15213,-14.13974 -7.85263,-6.52314 -14.85222,-11.83729 -15.55465,-11.80921 -0.70243,0.0281 -17.92714,20.75586 -38.27714,46.06174 -100.91007,125.48494 -105.22944,130.56737 -118.24725,139.13689 -9.18166,6.04421 -15.32462,7.95833 -27.25275,8.49183 -12.49496,0.55885 -19.93919,-1.04499 -30.46523,-6.56366 -9.68671,-5.07863 -16.56106,-12.2685 -21.43094,-22.41459 -6.16754,-12.84972 -7.42902,-23.24784 -4.55614,-37.55542 3.0656,-15.26739 12.75062,-31.72331 25.78005,-43.80317 19.14774,-17.75227 44.79294,-28.24401 74.86134,-30.62662 7.529,-0.59659 14.279,-1.45562 15,-1.90894 1.0119,-0.63621 0.2108,-2.99252 -3.51201,-10.33007 -9.95457,-19.62019 -22.08172,-35.92104 -38.34287,-51.53904 -34.3687,-33.009371 -68.98666,-45.546161 -118.62986,-42.961451 -44.82368,2.33378 -75.56636,15.597051 -103.98442,44.861841 -18.78222,19.34185 -28.66782,36.21199 -34.12491,58.23542 -4.1403,16.70919 -5.9033,37.58462 -3.34501,39.60788 1.5609,1.23447 22.68391,8.25631 24.8365,8.25631 1.34816,0 1.51524,-1.16623 1.12727,-7.86828 -1.79621,-31.02848 10.63043,-62.20035 33.63785,-84.37957 13.43769,-12.95397 30.97345,-24.57722 35.10216,-23.26682 2.32526,0.73801 4.51749,5.85014 3.38019,7.88239 -0.46626,0.83316 -5.72542,4.73628 -11.68702,8.6736 -24.45975,16.15437 -39.91097,37.07253 -47.24315,63.95868 -1.29184,4.73702 -1.78177,10.2972 -1.80632,20.5 -0.0448,18.59804 0.73442,21.03663 9.2167,28.8452 16.42296,15.11857 25.18582,26.32093 25.18582,32.19732 0,3.43843 -2.12022,6.45748 -4.53496,6.45748 -0.76565,0 -5.34601,-4.6125 -10.17857,-10.25 -16.57068,-19.3308 -24.92636,-26.27193 -38.48224,-31.96751 -46.86965,-19.69254 -92.043585,-0.88351 -108.148415,45.02965 -2.86118,8.15692 -3.05051,9.60456 -3.09802,23.68786 -0.0452,13.40993 0.24171,16.04742 2.70692,24.88087 3.81763,13.67956 7.78744,20.73385 16.70164,29.67857 14.24806,14.29684 34.511875,23.41509 60.033645,27.01377 6.40581,0.90325 70.70981,1.22666 261,1.31266 242.89517,0.10979 252.89941,0.0427 263.00004,-1.76345 29.3917,-5.25576 49.7241,-17.32145 65.6934,-38.98383 22.8861,-31.04496 25.7181,-74.96512 7.0052,-108.63859 -12.0553,-21.69321 -37.2845,-41.44778 -60.6528,-47.49137 -8.9468,-2.31384 -26.17359,-3.07624 -35.73692,-1.58158 -16.4417,2.56969 -33.12048,8.74909 -44.09872,16.33834 -12.95642,8.95677 -31.2102,28.64336 -31.2102,33.66002 0,1.3499 1.84031,5.50018 4.08957,9.22284 5.04594,8.3513 6.00642,13.54992 3.00525,16.26594 -3.6167,3.27307 -6.25248,0.90439 -16.80078,-15.09822 -9.07942,-13.77422 -17.71842,-23.8019 -28.54404,-33.13239 -4.25111,-3.66398 -4.58901,-5.11431 -1.78314,-7.65359 4.49167,-4.0649 9.0846,-1.64829 22.19804,11.6797 4.2157,4.28467 8.2657,7.78724 9,7.78348 0.73431,-0.004 2.45988,-1.69126 3.83461,-3.75 1.37472,-2.05874 6.92011,-8.31786 12.32309,-13.90915 14.03127,-14.52033 25.32019,-21.67209 45.24329,-28.66253 5.46376,-1.91707 10.75014,-3.81151 11.7475,-4.20985 0.99737,-0.39835 6.80586,-6.40268 12.90777,-13.34295 6.10191,-6.94028 11.66343,-12.95899 12.35895,-13.37492 1.26652,-0.7574 4.41989,1.58636 4.41989,3.2851 0,0.48731 -3.6,4.97431 -8,9.97113 -8.92351,10.1339 -9.9503,13 -4.65728,13 5.35841,0 10.8632,-3.8696 19.20472,-13.5 10.6938,-12.34614 16.6727,-18.5 17.9738,-18.5 0.6031,0 1.9366,0.61432 2.9635,1.36515 1.742,1.27384 1.0693,2.27912 -10.0589,15.03051 -6.5592,7.51595 -11.9258,14.18978 -11.9258,14.83074 0,0.6615 3.6752,1.9056 8.5,2.87737 32.631,6.57222 62.389,29.88151 76.9614,60.28352 12.5605,26.20463 14.2524,53.21905 5.1166,81.69657 -9.5443,29.75077 -28.7514,52.74684 -55.0736,65.9377 -8.1926,4.10557 -15.1073,6.52084 -26.5044,9.25777 l -9,2.16129 -256.00004,0.15617 c -144.61553,0.0882 -259.68584,-0.23264 -264.47133,-0.73744 z m 261.88037,-88.75391 c 8.68104,-2.70184 14.59644,-6.85894 24.73342,-17.38165 9.05945,-9.40416 30.3209,-35.05962 49.90927,-60.22379 5.99385,-7.7 13.29462,-16.86507 16.22392,-20.36682 2.9293,-3.50175 5.1879,-7.08393 5.01911,-7.96041 -0.74971,-3.89289 -25.99898,-10.00058 -44.79476,-10.83566 -30.32219,-1.34719 -61.19955,8.33008 -81.80974,25.63998 -7.22454,6.06767 -10.09641,9.65393 -17.78286,22.20638 -7.28192,11.89182 -8.71758,16.88538 -8.24406,28.67469 0.34706,8.64083 0.77924,10.4885 4.07809,17.43494 5.55542,11.69813 14.3943,19.54273 26.25857,23.30475 6.17577,1.95827 19.3226,1.71314 26.40904,-0.49241 z m 287.6336,33.54942 c -1.7273,-1.26307 -1.1481,-2.60543 9.4934,-22 11.8209,-21.54417 13.1678,-23.05733 16.4073,-18.43235 2.9524,4.21518 1.9753,9.9503 -3.4604,20.31003 -7.1607,13.64747 -9.8397,17.35375 -14.1234,19.53912 -4.476,2.28346 -5.859,2.38044 -8.3169,0.5832 z m 20.2012,-67.90486 c -0.9012,-0.6875 -2.9994,-5.01373 -4.6628,-9.61384 -6.6948,-18.51415 -16.642,-30.06584 -32.7802,-38.06763 -9.8738,-4.89573 -17.92727,-6.35807 -31.30084,-5.68356 -6.325,0.31901 -13.1479,0.8575 -15.16199,1.19665 -3.1667,0.53324 -3.88639,0.27417 -5.32108,-1.91543 -1.32679,-2.02495 -1.42844,-2.96302 -0.50751,-4.68379 2.03726,-3.80665 7.48444,-5.25006 21.75775,-5.76543 15.83887,-0.57189 23.60117,0.92849 35.59937,6.88101 18.7379,9.29626 30.6118,22.49953 37.6995,41.9203 3.3418,9.15681 3.5722,11.62553 1.3773,14.75921 -1.7407,2.48514 -4.2411,2.8481 -6.6995,0.97251 z M 320.61414,124.98097 c -11.47581,-3.31066 -29.02467,-4.12442 -41.44901,-1.92201 -7.98931,1.41622 -9.19577,1.42466 -11.25,0.0787 -2.78674,-1.82594 -2.9985,-5.52035 -0.44868,-7.8279 3.00293,-2.71762 14.58436,-4.59749 28.43985,-4.6163 26.55389,-0.036 46.06905,7.40109 39.23524,14.95236 -2.26131,2.49873 -3.80666,2.42801 -14.5274,-0.66483 z"
       id="path1" />
  </g>
</svg>
